<svg width="277" height="146" viewBox="0 0 277 146" fill="none" xmlns="http://www.w3.org/2000/svg">
<mask id="mask0_317_2350" style="mask-type:alpha" maskUnits="userSpaceOnUse" x="0" y="0" width="327" height="146">
<rect width="325.539" height="143" transform="matrix(-0.999962 -0.00872654 -0.00872654 0.999962 326.775 2.84082)" fill="#D9D9D9"/>
</mask>
<g mask="url(#mask0_317_2350)">
<path d="M144.204 178.603C140.535 167.135 142.665 153.693 149.655 144.221C156.638 134.749 170.875 126.625 181.981 128.005C182.281 120.425 185.742 113.059 191.216 108.345C196.696 103.638 203.78 101.525 210.652 102.942C207.524 96.0402 208.735 87.1071 213.556 81.4811C218.376 75.8551 226.879 73.5004 233.443 76.3926C225.192 64.8733 228.651 49.8755 240.343 43.4536C249.618 38.358 263.14 36.527 271.041 45.4524C273.739 48.5011 275.254 52.5416 275.871 56.6705C275.946 57.182 275.659 63.1324 275.091 63.4308C277.903 61.9444 283.404 62.5032 284.618 65.6286C285.705 62.532 289.548 61.0252 292.212 62.6447L326.804 156.862L144.204 178.603Z" fill="white"/>
<path d="M157.408 166.281C156.561 164.255 157.296 161.855 158.358 159.951C161.725 153.899 168.933 150.122 175.399 151.006C175.796 145.995 178.671 141.3 182.771 138.963C186.872 136.627 192.402 136.839 196.426 139.329C194.31 134.177 196.417 127.45 200.979 124.76C205.541 122.075 211.624 123.296 214.449 128.029C216.073 119.99 223.111 112.765 230.694 112.669C228.666 109.829 228.475 105.602 230.228 102.555C231.982 99.509 234.749 96.5575 237.991 97.2885C235.307 93.8032 235.418 88.163 238.238 84.8109C241.063 81.4588 245.81 80.1986 249.245 82.7916C248.531 77.3926 252.034 71.8588 256.807 70.155C261.58 68.4512 267.137 70.3722 270.521 74.4054C273.912 78.4387 275.406 84.3986 274.586 89.7825C277.262 88.4654 280.475 88.497 283.136 89.8545C285.797 91.212 288.154 93.4114 288.925 96.4949C289.95 93.6175 292.035 91.2065 294.615 89.9127C297.195 88.6251 300.242 88.4727 302.922 89.496C303.116 89.8383 303.321 90.813 303.514 91.1492L326.852 154.679C294.395 168.706 255.762 158.022 221.208 163.627C208.47 165.69 195.729 168.111 182.847 168.416C174.351 168.612 165.725 168.181 157.408 166.281Z" fill="#D9F9FF"/>
<path d="M207.634 153.972C208.348 147.861 211.672 142.176 216.463 138.875C221.253 135.574 227.273 133.962 232.672 135.862C232.243 132.036 233.897 128.024 236.809 125.816C239.721 123.609 243.657 122.803 246.824 124.56C244.739 121.981 244.786 118.02 245.964 114.836C248.348 108.394 255.138 104.256 261.451 105.406C267.763 106.556 273.721 113 274.049 119.936C276.814 115.589 282.039 113.264 286.824 114.253C291.61 115.242 295.732 119.396 296.84 124.542C298.189 121.043 302.215 119.43 305.636 120.192C309.057 120.961 311.886 123.608 314.041 126.594L323.577 150.507C287.742 165.989 245.751 147.669 207.634 153.972Z" fill="white"/>
<path d="M258.741 143.299C259.424 138.894 262.287 134.966 266.075 133.223C269.862 131.48 273.808 132.394 277.204 134.925C279.584 129.74 284.818 126.255 290.153 126.296C295.495 126.336 299.989 130.166 302.312 135.384C304.208 133.404 306.843 132.275 309.474 132.307C312.111 132.345 314.717 133.55 316.566 135.585C316.815 135.861 316.764 136.006 316.895 136.366L322.692 152.149C304.867 159.849 284.82 152.907 265.769 150.368C264.007 150.132 262.162 149.846 260.743 148.69C259.335 147.54 258.446 145.198 258.741 143.299Z" fill="#D9F9FF"/>
</g>
</svg>
